ISO-10303-21;
HEADER;
FILE_DESCRIPTION (( 'STEP AP214' ),
    '1' );
FILE_NAME ('ÂÖì±µæÆ¬.STEP',
    '2026-04-27T05:39:26',
    ( '' ),
    ( '' ),
    'SwSTEP 2.0',
    'SolidWorks 2026',
    '' );
FILE_SCHEMA (( 'AUTOMOTIVE_DESIGN' ));
ENDSEC;

DATA;
#1 = ADVANCED_FACE ( 'NONE', ( #454 ), #386, .F. ) ;
#2 = PRODUCT_DEFINITION_CONTEXT ( 'detailed design', #631, 'design' ) ;
#3 = CYLINDRICAL_SURFACE ( 'NONE', #580, 7.000000000000000000 ) ;
#4 = CARTESIAN_POINT ( 'NONE',  ( -8.242304845413723768, -7.487354696433185630, 8.000000000000000000 ) ) ;
#5 = FACE_BOUND ( 'NONE', #375, .T. ) ;
#6 = CARTESIAN_POINT ( 'NONE',  ( 19.00000000000000000, -1.487354696433177415, 8.000000000000000000 ) ) ;
#7 = EDGE_CURVE ( 'NONE', #419, #33, #450, .T. ) ;
#8 = CARTESIAN_POINT ( 'NONE',  ( 1.469576158976869898E-15, -13.48735469643318119, 8.000000000000000000 ) ) ;
#9 = EDGE_CURVE ( 'NONE', #83, #573, #139, .T. ) ;
#10 = AXIS2_PLACEMENT_3D ( 'NONE', #50, #65, #101 ) ;
#11 = DIRECTION ( 'NONE',  ( 1.000000000000000000, 0.000000000000000000, 0.000000000000000000 ) ) ;
#12 = VERTEX_POINT ( 'NONE', #91 ) ;
#13 = DIRECTION ( 'NONE',  ( 1.000000000000000000, 0.000000000000000000, 0.000000000000000000 ) ) ;
#14 = ORIENTED_EDGE ( 'NONE', *, *, #582, .F. ) ;
#15 = DIRECTION ( 'NONE',  ( -1.000000000000000000, 0.000000000000000000, 0.000000000000000000 ) ) ;
#16 = CARTESIAN_POINT ( 'NONE',  ( -10.39230484541302957, 4.512645303566650057, 8.000000000000000000 ) ) ;
#17 = VERTEX_POINT ( 'NONE', #548 ) ;
#18 = AXIS2_PLACEMENT_3D ( 'NONE', #216, #64, #11 ) ;
#19 = CYLINDRICAL_SURFACE ( 'NONE', #263, 2.149999999999539391 ) ;
#20 = LINE ( 'NONE', #116, #596 ) ;
#21 = ORIENTED_EDGE ( 'NONE', *, *, #473, .T. ) ;
#22 = VERTEX_POINT ( 'NONE', #58 ) ;
#23 = AXIS2_PLACEMENT_3D ( 'NONE', #570, #275, #180 ) ;
#24 = CARTESIAN_POINT ( 'NONE',  ( 10.39230484541344879, 4.512645303567090593, 8.000000000000000000 ) ) ;
#25 = CIRCLE ( 'NONE', #186, 2.150000000000000355 ) ;
#26 = ORIENTED_EDGE ( 'NONE', *, *, #169, .T. ) ;
#27 = DIRECTION ( 'NONE',  ( 1.000000000000000000, 0.000000000000000000, 0.000000000000000000 ) ) ;
#28 = CARTESIAN_POINT ( 'NONE',  ( 2.150000000000000355, 10.51264530356682236, 0.000000000000000000 ) ) ;
#29 = VERTEX_POINT ( 'NONE', #488 ) ;
#30 = CARTESIAN_POINT ( 'NONE',  ( -12.54230484541302992, 4.512645303566650057, 8.000000000000000000 ) ) ;
#31 = VECTOR ( 'NONE', #168, 1000.000000000000000 ) ;
#32 = ORIENTED_EDGE ( 'NONE', *, *, #241, .F. ) ;
#33 = VERTEX_POINT ( 'NONE', #244 ) ;
#34 = VECTOR ( 'NONE', #522, 1000.000000000000000 ) ;
#35 = CARTESIAN_POINT ( 'NONE',  ( -2.150000000000000355, 10.51264530356682236, 8.000000000000000000 ) ) ;
#36 = ORIENTED_EDGE ( 'NONE', *, *, #190, .F. ) ;
#37 = SURFACE_SIDE_STYLE ('',( #482 ) ) ;
#38 = EDGE_CURVE ( 'NONE', #573, #33, #556, .T. ) ;
#39 = CARTESIAN_POINT ( 'NONE',  ( -8.242304845413029213, 4.512645303566650057, 8.000000000000000000 ) ) ;
#40 = DIRECTION ( 'NONE',  ( 0.000000000000000000, 0.000000000000000000, 1.000000000000000000 ) ) ;
#41 = VECTOR ( 'NONE', #251, 1000.000000000000000 ) ;
#42 = VECTOR ( 'NONE', #144, 1000.000000000000000 ) ;
#43 = CARTESIAN_POINT ( 'NONE',  ( -10.39230484541326405, -7.487354696433185630, 0.000000000000000000 ) ) ;
#44 = VERTEX_POINT ( 'NONE', #304 ) ;
#45 = LINE ( 'NONE', #594, #73 ) ;
#46 = ADVANCED_FACE ( 'NONE', ( #253 ), #588, .F. ) ;
#47 = VECTOR ( 'NONE', #87, 1000.000000000000000 ) ;
#48 = SHAPE_DEFINITION_REPRESENTATION ( #95, #280 ) ;
#49 = APPLICATION_CONTEXT ( 'automotive_design' ) ;
#50 = CARTESIAN_POINT ( 'NONE',  ( 1.469576158976869898E-15, -13.48735469643318119, 8.000000000000000000 ) ) ;
#51 = ADVANCED_FACE ( 'NONE', ( #192 ), #530, .F. ) ;
#52 = CARTESIAN_POINT ( 'NONE',  ( -2.149999999999433697, -13.48735469643318119, 0.000000000000000000 ) ) ;
#53 = VERTEX_POINT ( 'NONE', #293 ) ;
#54 = DIRECTION ( 'NONE',  ( 0.000000000000000000, 0.000000000000000000, 1.000000000000000000 ) ) ;
#55 = EDGE_CURVE ( 'NONE', #53, #17, #643, .T. ) ;
#56 = EDGE_CURVE ( 'NONE', #418, #620, #364, .T. ) ;
#57 = CARTESIAN_POINT ( 'NONE',  ( 2.149999999999436362, -13.48735469643318119, 0.000000000000000000 ) ) ;
#58 = CARTESIAN_POINT ( 'NONE',  ( 12.54230484541344914, 4.512645303567090593, 0.000000000000000000 ) ) ;
#59 = CIRCLE ( 'NONE', #425, 2.149999999999435030 ) ;
#60 = DIRECTION ( 'NONE',  ( 1.000000000000000000, 0.000000000000000000, 0.000000000000000000 ) ) ;
#61 = FACE_BOUND ( 'NONE', #360, .T. ) ;
#62 = DIRECTION ( 'NONE',  ( 0.000000000000000000, 0.000000000000000000, 1.000000000000000000 ) ) ;
#63 = EDGE_LOOP ( 'NONE', ( #142, #640, #372, #268 ) ) ;
#64 = DIRECTION ( 'NONE',  ( 0.000000000000000000, 0.000000000000000000, 1.000000000000000000 ) ) ;
#65 = DIRECTION ( 'NONE',  ( 0.000000000000000000, 0.000000000000000000, 1.000000000000000000 ) ) ;
#66 = ORIENTED_EDGE ( 'NONE', *, *, #563, .F. ) ;
#67 = ORIENTED_EDGE ( 'NONE', *, *, #55, .T. ) ;
#68 = EDGE_CURVE ( 'NONE', #614, #418, #322, .T. ) ;
#69 = DIRECTION ( 'NONE',  ( -1.000000000000000000, 0.000000000000000000, 0.000000000000000000 ) ) ;
#70 = ORIENTED_EDGE ( 'NONE', *, *, #221, .T. ) ;
#71 = CIRCLE ( 'NONE', #401, 2.150000000000000799 ) ;
#72 = DIRECTION ( 'NONE',  ( 0.000000000000000000, 0.000000000000000000, 1.000000000000000000 ) ) ;
#73 = VECTOR ( 'NONE', #436, 1000.000000000000000 ) ;
#74 = CARTESIAN_POINT ( 'NONE',  ( -8.242304845413029213, 4.512645303566650057, 8.000000000000000000 ) ) ;
#75 = ORIENTED_EDGE ( 'NONE', *, *, #7, .T. ) ;
#76 = DIRECTION ( 'NONE',  ( 1.000000000000000000, 0.000000000000000000, 0.000000000000000000 ) ) ;
#77 = LINE ( 'NONE', #30, #247 ) ;
#78 = ORIENTED_EDGE ( 'NONE', *, *, #7, .F. ) ;
#79 = CIRCLE ( 'NONE', #327, 19.00000000000000000 ) ;
#80 = CARTESIAN_POINT ( 'NONE',  ( 0.000000000000000000, -1.487354696433179857, 8.000000000000000000 ) ) ;
#81 = CARTESIAN_POINT ( 'NONE',  ( 0.000000000000000000, -1.487354696433179857, 8.000000000000000000 ) ) ;
#82 = AXIS2_PLACEMENT_3D ( 'NONE', #525, #122, #471 ) ;
#83 = VERTEX_POINT ( 'NONE', #284 ) ;
#84 = DIRECTION ( 'NONE',  ( 1.000000000000000000, 0.000000000000000000, 0.000000000000000000 ) ) ;
#85 = ADVANCED_FACE ( 'NONE', ( #134 ), #433, .F. ) ;
#86 = DIRECTION ( 'NONE',  ( 0.000000000000000000, 0.000000000000000000, 1.000000000000000000 ) ) ;
#87 = DIRECTION ( 'NONE',  ( -0.000000000000000000, -0.000000000000000000, -1.000000000000000000 ) ) ;
#88 = VERTEX_POINT ( 'NONE', #28 ) ;
#89 = AXIS2_PLACEMENT_3D ( 'NONE', #521, #564, #416 ) ;
#90 = CYLINDRICAL_SURFACE ( 'NONE', #319, 19.00000000000000000 ) ;
#91 = CARTESIAN_POINT ( 'NONE',  ( 12.54230484541344914, 4.512645303567090593, 8.000000000000000000 ) ) ;
#92 = ORIENTED_EDGE ( 'NONE', *, *, #515, .F. ) ;
#93 = AXIS2_PLACEMENT_3D ( 'NONE', #405, #248, #447 ) ;
#94 = CARTESIAN_POINT ( 'NONE',  ( 0.000000000000000000, 10.51264530356682236, 0.000000000000000000 ) ) ;
#95 = PRODUCT_DEFINITION_SHAPE ( 'NONE', 'NONE',  #223 ) ;
#96 = DIRECTION ( 'NONE',  ( -1.000000000000000000, 0.000000000000000000, 0.000000000000000000 ) ) ;
#97 = ADVANCED_FACE ( 'NONE', ( #385 ), #477, .F. ) ;
#98 = DIRECTION ( 'NONE',  ( 1.000000000000000000, 0.000000000000000000, 0.000000000000000000 ) ) ;
#99 = AXIS2_PLACEMENT_3D ( 'NONE', #602, #107, #403 ) ;
#100 = CARTESIAN_POINT ( 'NONE',  ( 0.000000000000000000, -1.487354696433179857, 8.000000000000000000 ) ) ;
#101 = DIRECTION ( 'NONE',  ( 1.000000000000000000, 0.000000000000000000, 0.000000000000000000 ) ) ;
#102 = EDGE_CURVE ( 'NONE', #17, #44, #618, .T. ) ;
#103 = AXIS2_PLACEMENT_3D ( 'NONE', #246, #86, #391 ) ;
#104 = PLANE ( 'NONE',  #99 ) ;
#105 = EDGE_CURVE ( 'NONE', #371, #620, #77, .T. ) ;
#106 = CARTESIAN_POINT ( 'NONE',  ( -7.000000000000000000, -1.487354696433179857, 8.000000000000000000 ) ) ;
#107 = DIRECTION ( 'NONE',  ( 0.000000000000000000, 0.000000000000000000, 1.000000000000000000 ) ) ;
#108 = DIRECTION ( 'NONE',  ( 1.000000000000000000, 0.000000000000000000, 0.000000000000000000 ) ) ;
#109 = LINE ( 'NONE', #106, #151 ) ;
#110 = ORIENTED_EDGE ( 'NONE', *, *, #635, .F. ) ;
#111 = CYLINDRICAL_SURFACE ( 'NONE', #344, 19.00000000000000000 ) ;
#112 = FACE_OUTER_BOUND ( 'NONE', #63, .T. ) ;
#113 = ORIENTED_EDGE ( 'NONE', *, *, #445, .F. ) ;
#114 = AXIS2_PLACEMENT_3D ( 'NONE', #422, #434, #128 ) ;
#115 = LINE ( 'NONE', #310, #205 ) ;
#116 = CARTESIAN_POINT ( 'NONE',  ( -2.150000000000000355, 10.51264530356682236, 8.000000000000000000 ) ) ;
#117 = EDGE_LOOP ( 'NONE', ( #167, #611 ) ) ;
#118 = EDGE_CURVE ( 'NONE', #22, #432, #299, .T. ) ;
#119 = FACE_OUTER_BOUND ( 'NONE', #626, .T. ) ;
#120 = VERTEX_POINT ( 'NONE', #633 ) ;
#121 = ORIENTED_EDGE ( 'NONE', *, *, #474, .T. ) ;
#122 = DIRECTION ( 'NONE',  ( 0.000000000000000000, 0.000000000000000000, 1.000000000000000000 ) ) ;
#123 = ORIENTED_EDGE ( 'NONE', *, *, #343, .T. ) ;
#124 = ADVANCED_FACE ( 'NONE', ( #377 ), #380, .F. ) ;
#125 = VECTOR ( 'NONE', #298, 1000.000000000000000 ) ;
#126 = CARTESIAN_POINT ( 'NONE',  ( 1.469576158976869898E-15, -13.48735469643318119, 8.000000000000000000 ) ) ;
#127 = AXIS2_PLACEMENT_3D ( 'NONE', #547, #394, #533 ) ;
#128 = DIRECTION ( 'NONE',  ( 1.000000000000000000, 0.000000000000000000, 0.000000000000000000 ) ) ;
#129 = ORIENTED_EDGE ( 'NONE', *, *, #397, .T. ) ;
#130 = EDGE_LOOP ( 'NONE', ( #129, #415 ) ) ;
#131 = CARTESIAN_POINT ( 'NONE',  ( 8.242304845413610082, -7.487354696433178525, 0.000000000000000000 ) ) ;
#132 = FACE_BOUND ( 'NONE', #442, .T. ) ;
#133 = CIRCLE ( 'NONE', #381, 7.000000000000000000 ) ;
#134 = FACE_OUTER_BOUND ( 'NONE', #478, .T. ) ;
#135 = AXIS2_PLACEMENT_3D ( 'NONE', #472, #581, #527 ) ;
#136 = DIRECTION ( 'NONE',  ( -1.000000000000000000, 0.000000000000000000, 0.000000000000000000 ) ) ;
#137 = VERTEX_POINT ( 'NONE', #35 ) ;
#138 = CARTESIAN_POINT ( 'NONE',  ( 12.54230484541292512, -7.487354696433178525, 8.000000000000000000 ) ) ;
#139 = LINE ( 'NONE', #486, #413 ) ;
#140 = AXIS2_PLACEMENT_3D ( 'NONE', #24, #72, #27 ) ;
#141 = CARTESIAN_POINT ( 'NONE',  ( -12.54230484541302992, 4.512645303566650057, 0.000000000000000000 ) ) ;
#142 = ORIENTED_EDGE ( 'NONE', *, *, #610, .F. ) ;
#143 = UNCERTAINTY_MEASURE_WITH_UNIT (LENGTH_MEASURE( 1.000000000000000082E-05 ), #537, 'distance_accuracy_value', 'NONE');
#144 = DIRECTION ( 'NONE',  ( -0.000000000000000000, -0.000000000000000000, -1.000000000000000000 ) ) ;
#145 = ORIENTED_EDGE ( 'NONE', *, *, #296, .F. ) ;
#146 = PRODUCT_CONTEXT ( 'NONE', #49, 'mechanical' ) ;
#147 = ADVANCED_FACE ( 'NONE', ( #237, #132, #326, #628, #279, #183, #234, #431 ), #330, .T. ) ;
#148 = DIRECTION ( 'NONE',  ( 0.000000000000000000, 0.000000000000000000, 1.000000000000000000 ) ) ;
#149 = DIRECTION ( 'NONE',  ( -1.000000000000000000, 0.000000000000000000, 0.000000000000000000 ) ) ;
#150 = CARTESIAN_POINT ( 'NONE',  ( -12.54230484541280255, -7.487354696433185630, 8.000000000000000000 ) ) ;
#151 = VECTOR ( 'NONE', #497, 1000.000000000000000 ) ;
#152 = VECTOR ( 'NONE', #638, 1000.000000000000000 ) ;
#153 = DIRECTION ( 'NONE',  ( -0.000000000000000000, -0.000000000000000000, -1.000000000000000000 ) ) ;
#154 = EDGE_LOOP ( 'NONE', ( #209, #255, #475, #276 ) ) ;
#155 = DIRECTION ( 'NONE',  ( 0.000000000000000000, 0.000000000000000000, 1.000000000000000000 ) ) ;
#156 = MANIFOLD_SOLID_BREP ( '\X2\51f853f0\X0\-\X2\62c94f38\X0\1', #196 ) ;
#157 = DIRECTION ( 'NONE',  ( -0.000000000000000000, -0.000000000000000000, -1.000000000000000000 ) ) ;
#158 = CARTESIAN_POINT ( 'NONE',  ( 2.149999999999436362, -13.48735469643318119, 8.000000000000000000 ) ) ;
#159 = CIRCLE ( 'NONE', #440, 2.149999999999657518 ) ;
#160 = DIRECTION ( 'NONE',  ( 1.000000000000000000, 0.000000000000000000, 0.000000000000000000 ) ) ;
#161 = LINE ( 'NONE', #456, #125 ) ;
#162 = ADVANCED_FACE ( 'NONE', ( #559 ), #622, .F. ) ;
#163 = EDGE_LOOP ( 'NONE', ( #469, #566, #378, #338 ) ) ;
#164 = AXIS2_PLACEMENT_3D ( 'NONE', #404, #499, #639 ) ;
#165 = DIRECTION ( 'NONE',  ( 0.000000000000000000, 0.000000000000000000, 1.000000000000000000 ) ) ;
#166 = ORIENTED_EDGE ( 'NONE', *, *, #351, .T. ) ;
#167 = ORIENTED_EDGE ( 'NONE', *, *, #169, .F. ) ;
#168 = DIRECTION ( 'NONE',  ( -0.000000000000000000, -0.000000000000000000, -1.000000000000000000 ) ) ;
#169 = EDGE_CURVE ( 'NONE', #29, #12, #194, .T. ) ;
#170 = ORIENTED_EDGE ( 'NONE', *, *, #531, .F. ) ;
#171 = EDGE_LOOP ( 'NONE', ( #218, #291, #368, #513 ) ) ;
#172 = ORIENTED_EDGE ( 'NONE', *, *, #38, .F. ) ;
#173 = CARTESIAN_POINT ( 'NONE',  ( -10.39230484541302957, 4.512645303566650057, 8.000000000000000000 ) ) ;
#174 = AXIS2_PLACEMENT_3D ( 'NONE', #514, #225, #369 ) ;
#175 = DIRECTION ( 'NONE',  ( -0.000000000000000000, -0.000000000000000000, -1.000000000000000000 ) ) ;
#176 = ORIENTED_EDGE ( 'NONE', *, *, #328, .T. ) ;
#177 = CIRCLE ( 'NONE', #290, 7.000000000000000000 ) ;
#178 = ORIENTED_EDGE ( 'NONE', *, *, #448, .F. ) ;
#179 = DIRECTION ( 'NONE',  ( 0.000000000000000000, 0.000000000000000000, 1.000000000000000000 ) ) ;
#180 = DIRECTION ( 'NONE',  ( 1.000000000000000000, 0.000000000000000000, 0.000000000000000000 ) ) ;
#181 = ORIENTED_EDGE ( 'NONE', *, *, #397, .F. ) ;
#182 = ORIENTED_EDGE ( 'NONE', *, *, #448, .T. ) ;
#183 = FACE_BOUND ( 'NONE', #117, .T. ) ;
#184 = AXIS2_PLACEMENT_3D ( 'NONE', #595, #398, #546 ) ;
#185 = EDGE_CURVE ( 'NONE', #429, #259, #361, .T. ) ;
#186 = AXIS2_PLACEMENT_3D ( 'NONE', #94, #345, #239 ) ;
#187 = DIRECTION ( 'NONE',  ( -0.000000000000000000, -0.000000000000000000, -1.000000000000000000 ) ) ;
#188 = DIRECTION ( 'NONE',  ( 0.000000000000000000, 0.000000000000000000, 1.000000000000000000 ) ) ;
#189 = ORIENTED_EDGE ( 'NONE', *, *, #335, .F. ) ;
#190 = EDGE_CURVE ( 'NONE', #466, #465, #59, .T. ) ;
#191 = DIRECTION ( 'NONE',  ( 1.000000000000000000, 0.000000000000000000, 0.000000000000000000 ) ) ;
#192 = FACE_OUTER_BOUND ( 'NONE', #154, .T. ) ;
#193 = ORIENTED_EDGE ( 'NONE', *, *, #560, .T. ) ;
#194 = CIRCLE ( 'NONE', #140, 2.150000000000000799 ) ;
#195 = VERTEX_POINT ( 'NONE', #222 ) ;
#196 = CLOSED_SHELL ( 'NONE', ( #285, #470, #85, #46, #97, #1, #584, #577, #147, #483, #505, #124, #162, #383, #512, #212, #51, #355 ) ) ;
#197 = DIRECTION ( 'NONE',  ( 0.000000000000000000, 0.000000000000000000, 1.000000000000000000 ) ) ;
#198 = PRODUCT_RELATED_PRODUCT_CATEGORY ( 'part', '', ( #601 ) ) ;
#199 = FACE_OUTER_BOUND ( 'NONE', #315, .T. ) ;
#200 = CARTESIAN_POINT ( 'NONE',  ( -10.39230484541302957, 4.512645303566650057, 0.000000000000000000 ) ) ;
#201 = FACE_OUTER_BOUND ( 'NONE', #365, .T. ) ;
#202 = ORIENTED_EDGE ( 'NONE', *, *, #68, .F. ) ;
#203 = CARTESIAN_POINT ( 'NONE',  ( -8.242304845413723768, -7.487354696433185630, 0.000000000000000000 ) ) ;
#204 = CIRCLE ( 'NONE', #10, 2.149999999999435030 ) ;
#205 = VECTOR ( 'NONE', #506, 1000.000000000000000 ) ;
#206 = FACE_BOUND ( 'NONE', #625, .T. ) ;
#207 = DIRECTION ( 'NONE',  ( -0.000000000000000000, -0.000000000000000000, -1.000000000000000000 ) ) ;
#208 = DIRECTION ( 'NONE',  ( -1.000000000000000000, 0.000000000000000000, 0.000000000000000000 ) ) ;
#209 = ORIENTED_EDGE ( 'NONE', *, *, #393, .F. ) ;
#210 = PRODUCT_DEFINITION_FORMATION_WITH_SPECIFIED_SOURCE ( 'ä»', '', #601, .NOT_KNOWN. ) ;
#211 = CARTESIAN_POINT ( 'NONE',  ( 0.000000000000000000, 10.51264530356682236, 8.000000000000000000 ) ) ;
#212 = ADVANCED_FACE ( 'NONE', ( #119 ), #510, .F. ) ;
#213 = DIRECTION ( 'NONE',  ( -0.000000000000000000, -0.000000000000000000, -1.000000000000000000 ) ) ;
#214 = AXIS2_PLACEMENT_3D ( 'NONE', #592, #552, #302 ) ;
#215 = ORIENTED_EDGE ( 'NONE', *, *, #105, .T. ) ;
#216 = CARTESIAN_POINT ( 'NONE',  ( 10.39230484541326760, -7.487354696433178525, 8.000000000000000000 ) ) ;
#217 = DIRECTION ( 'NONE',  ( 1.000000000000000000, 0.000000000000000000, 0.000000000000000000 ) ) ;
#218 = ORIENTED_EDGE ( 'NONE', *, *, #306, .T. ) ;
#219 = ORIENTED_EDGE ( 'NONE', *, *, #424, .T. ) ;
#220 = VECTOR ( 'NONE', #153, 1000.000000000000000 ) ;
#221 = EDGE_CURVE ( 'NONE', #314, #465, #609, .T. ) ;
#222 = CARTESIAN_POINT ( 'NONE',  ( 12.54230484541292512, -7.487354696433178525, 0.000000000000000000 ) ) ;
#223 = PRODUCT_DEFINITION ( 'æœ', '', #210, #2 ) ;
#224 = ORIENTED_EDGE ( 'NONE', *, *, #583, .T. ) ;
#225 = DIRECTION ( 'NONE',  ( 0.000000000000000000, 0.000000000000000000, 1.000000000000000000 ) ) ;
#226 = SURFACE_STYLE_USAGE ( .BOTH. , #37 ) ;
#227 = ORIENTED_EDGE ( 'NONE', *, *, #632, .T. ) ;
#228 = ORIENTED_EDGE ( 'NONE', *, *, #334, .T. ) ;
#229 = DIRECTION ( 'NONE',  ( -1.000000000000000000, 0.000000000000000000, 0.000000000000000000 ) ) ;
#230 = AXIS2_PLACEMENT_3D ( 'NONE', #617, #476, #568 ) ;
#231 = CARTESIAN_POINT ( 'NONE',  ( 10.39230484541344879, 4.512645303567090593, 8.000000000000000000 ) ) ;
#232 = ORIENTED_EDGE ( 'NONE', *, *, #306, .F. ) ;
#233 = EDGE_LOOP ( 'NONE', ( #504, #75, #219, #370 ) ) ;
#234 = FACE_BOUND ( 'NONE', #238, .T. ) ;
#235 = ORIENTED_EDGE ( 'NONE', *, *, #445, .T. ) ;
#236 = EDGE_CURVE ( 'NONE', #12, #29, #553, .T. ) ;
#237 = FACE_BOUND ( 'NONE', #518, .T. ) ;
#238 = EDGE_LOOP ( 'NONE', ( #113, #621 ) ) ;
#239 = DIRECTION ( 'NONE',  ( 1.000000000000000000, 0.000000000000000000, 0.000000000000000000 ) ) ;
#240 = CIRCLE ( 'NONE', #318, 2.150000000000000799 ) ;
#241 = EDGE_CURVE ( 'NONE', #264, #195, #441, .T. ) ;
#242 = CIRCLE ( 'NONE', #350, 7.000000000000000000 ) ;
#243 = DIRECTION ( 'NONE',  ( -0.000000000000000000, -0.000000000000000000, -1.000000000000000000 ) ) ;
#244 = CARTESIAN_POINT ( 'NONE',  ( 19.00000000000000000, -1.487354696433177415, 0.000000000000000000 ) ) ;
#245 = AXIS2_PLACEMENT_3D ( 'NONE', #211, #496, #160 ) ;
#246 = CARTESIAN_POINT ( 'NONE',  ( 0.000000000000000000, 10.51264530356682236, 8.000000000000000000 ) ) ;
#247 = VECTOR ( 'NONE', #480, 1000.000000000000000 ) ;
#248 = DIRECTION ( 'NONE',  ( -0.000000000000000000, -0.000000000000000000, -1.000000000000000000 ) ) ;
#249 = DIRECTION ( 'NONE',  ( 1.000000000000000000, 0.000000000000000000, 0.000000000000000000 ) ) ;
#250 = EDGE_LOOP ( 'NONE', ( #333, #558 ) ) ;
#251 = DIRECTION ( 'NONE',  ( -0.000000000000000000, -0.000000000000000000, -1.000000000000000000 ) ) ;
#252 = CARTESIAN_POINT ( 'NONE',  ( 0.000000000000000000, -1.487354696433179857, 0.000000000000000000 ) ) ;
#253 = FACE_OUTER_BOUND ( 'NONE', #629, .T. ) ;
#254 = DIRECTION ( 'NONE',  ( 1.000000000000000000, 0.000000000000000000, 0.000000000000000000 ) ) ;
#255 = ORIENTED_EDGE ( 'NONE', *, *, #529, .T. ) ;
#256 = AXIS2_PLACEMENT_3D ( 'NONE', #80, #316, #217 ) ;
#257 = FACE_BOUND ( 'NONE', #354, .T. ) ;
#258 = DIRECTION ( 'NONE',  ( 1.000000000000000000, 0.000000000000000000, 0.000000000000000000 ) ) ;
#259 = VERTEX_POINT ( 'NONE', #467 ) ;
#260 = AXIS2_PLACEMENT_3D ( 'NONE', #438, #197, #191 ) ;
#261 = FACE_OUTER_BOUND ( 'NONE', #562, .T. ) ;
#262 = DIRECTION ( 'NONE',  ( 1.000000000000000000, 0.000000000000000000, 0.000000000000000000 ) ) ;
#263 = AXIS2_PLACEMENT_3D ( 'NONE', #453, #157, #362 ) ;
#264 = VERTEX_POINT ( 'NONE', #131 ) ;
#265 = EDGE_CURVE ( 'NONE', #419, #83, #376, .T. ) ;
#266 = EDGE_LOOP ( 'NONE', ( #523, #636, #181, #324 ) ) ;
#267 = CARTESIAN_POINT ( 'NONE',  ( -2.149999999999433697, -13.48735469643318119, 8.000000000000000000 ) ) ;
#268 = ORIENTED_EDGE ( 'NONE', *, *, #118, .F. ) ;
#269 = AXIS2_PLACEMENT_3D ( 'NONE', #407, #605, #555 ) ;
#270 = FACE_OUTER_BOUND ( 'NONE', #171, .T. ) ;
#271 = PRESENTATION_STYLE_ASSIGNMENT (( #226 ) ) ;
#272 = ORIENTED_EDGE ( 'NONE', *, *, #335, .T. ) ;
#273 = ORIENTED_EDGE ( 'NONE', *, *, #185, .T. ) ;
#274 = DIRECTION ( 'NONE',  ( -0.000000000000000000, -0.000000000000000000, -1.000000000000000000 ) ) ;
#275 = DIRECTION ( 'NONE',  ( 0.000000000000000000, 0.000000000000000000, 1.000000000000000000 ) ) ;
#276 = ORIENTED_EDGE ( 'NONE', *, *, #185, .F. ) ;
#277 = ORIENTED_EDGE ( 'NONE', *, *, #593, .T. ) ;
#278 = AXIS2_PLACEMENT_3D ( 'NONE', #126, #321, #69 ) ;
#279 = FACE_BOUND ( 'NONE', #250, .T. ) ;
#280 = ADVANCED_BREP_SHAPE_REPRESENTATION ( '\X2\8f6e6bc257ab7247\X0\', ( #156, #260 ), #539 ) ;
#281 = EDGE_CURVE ( 'NONE', #432, #22, #623, .T. ) ;
#282 = ORIENTED_EDGE ( 'NONE', *, *, #473, .F. ) ;
#283 = FILL_AREA_STYLE ('',( #578 ) ) ;
#284 = CARTESIAN_POINT ( 'NONE',  ( -19.00000000000000000, -1.487354696433179857, 8.000000000000000000 ) ) ;
#285 = ADVANCED_FACE ( 'NONE', ( #270 ), #420, .F. ) ;
#286 = DIRECTION ( 'NONE',  ( 0.000000000000000000, 0.000000000000000000, 1.000000000000000000 ) ) ;
#287 = CARTESIAN_POINT ( 'NONE',  ( 0.000000000000000000, 10.51264530356682236, 8.000000000000000000 ) ) ;
#288 = EDGE_LOOP ( 'NONE', ( #590, #277, #123, #189 ) ) ;
#289 = DIRECTION ( 'NONE',  ( -0.000000000000000000, -0.000000000000000000, -1.000000000000000000 ) ) ;
#290 = AXIS2_PLACEMENT_3D ( 'NONE', #402, #544, #557 ) ;
#291 = ORIENTED_EDGE ( 'NONE', *, *, #68, .T. ) ;
#292 = ORIENTED_EDGE ( 'NONE', *, *, #56, .T. ) ;
#293 = CARTESIAN_POINT ( 'NONE',  ( -7.000000000000000000, -1.487354696433179857, 8.000000000000000000 ) ) ;
#294 = AXIS2_PLACEMENT_3D ( 'NONE', #503, #62, #258 ) ;
#295 = DIRECTION ( 'NONE',  ( 0.000000000000000000, 0.000000000000000000, 1.000000000000000000 ) ) ;
#296 = EDGE_CURVE ( 'NONE', #465, #466, #516, .T. ) ;
#297 = DIRECTION ( 'NONE',  ( 1.000000000000000000, 0.000000000000000000, 0.000000000000000000 ) ) ;
#298 = DIRECTION ( 'NONE',  ( -0.000000000000000000, -0.000000000000000000, -1.000000000000000000 ) ) ;
#299 = CIRCLE ( 'NONE', #23, 2.150000000000000799 ) ;
#300 = CIRCLE ( 'NONE', #269, 2.149999999999539391 ) ;
#301 = CARTESIAN_POINT ( 'NONE',  ( 0.000000000000000000, -1.487354696433179857, 8.000000000000000000 ) ) ;
#302 = DIRECTION ( 'NONE',  ( 1.000000000000000000, 0.000000000000000000, 0.000000000000000000 ) ) ;
#303 = FACE_OUTER_BOUND ( 'NONE', #406, .T. ) ;
#304 = CARTESIAN_POINT ( 'NONE',  ( 7.000000000000000000, -1.487354696433178969, 0.000000000000000000 ) ) ;
#305 = CARTESIAN_POINT ( 'NONE',  ( 2.150000000000000355, 10.51264530356682236, 8.000000000000000000 ) ) ;
#306 = EDGE_CURVE ( 'NONE', #371, #614, #240, .T. ) ;
#307 = AXIS2_PLACEMENT_3D ( 'NONE', #81, #187, #572 ) ;
#308 = FACE_BOUND ( 'NONE', #367, .T. ) ;
#309 = DIRECTION ( 'NONE',  ( 0.000000000000000000, 0.000000000000000000, 1.000000000000000000 ) ) ;
#310 = CARTESIAN_POINT ( 'NONE',  ( 8.242304845413448433, 4.512645303567090593, 8.000000000000000000 ) ) ;
#311 = CARTESIAN_POINT ( 'NONE',  ( -7.000000000000000000, -1.487354696433179857, 0.000000000000000000 ) ) ;
#312 = EDGE_LOOP ( 'NONE', ( #232, #400 ) ) ;
#313 =( NAMED_UNIT ( * ) SI_UNIT ( $, .STERADIAN. ) SOLID_ANGLE_UNIT ( ) );
#314 = VERTEX_POINT ( 'NONE', #356 ) ;
#315 = EDGE_LOOP ( 'NONE', ( #67, #535, #524, #479 ) ) ;
#316 = DIRECTION ( 'NONE',  ( 0.000000000000000000, 0.000000000000000000, 1.000000000000000000 ) ) ;
#317 = ORIENTED_EDGE ( 'NONE', *, *, #296, .T. ) ;
#318 = AXIS2_PLACEMENT_3D ( 'NONE', #606, #309, #13 ) ;
#319 = AXIS2_PLACEMENT_3D ( 'NONE', #100, #396, #446 ) ;
#320 = VERTEX_POINT ( 'NONE', #311 ) ;
#321 = DIRECTION ( 'NONE',  ( -0.000000000000000000, -0.000000000000000000, -1.000000000000000000 ) ) ;
#322 = LINE ( 'NONE', #74, #493 ) ;
#323 = ORIENTED_EDGE ( 'NONE', *, *, #221, .F. ) ;
#324 = ORIENTED_EDGE ( 'NONE', *, *, #328, .F. ) ;
#325 = DIRECTION ( 'NONE',  ( 0.000000000000000000, 0.000000000000000000, 1.000000000000000000 ) ) ;
#326 = FACE_BOUND ( 'NONE', #607, .T. ) ;
#327 = AXIS2_PLACEMENT_3D ( 'NONE', #349, #54, #254 ) ;
#328 = EDGE_CURVE ( 'NONE', #137, #120, #20, .T. ) ;
#329 = EDGE_LOOP ( 'NONE', ( #202, #567, #215, #340 ) ) ;
#330 = PLANE ( 'NONE',  #619 ) ;
#331 = AXIS2_PLACEMENT_3D ( 'NONE', #287, #207, #439 ) ;
#332 =( LENGTH_UNIT ( ) NAMED_UNIT ( * ) SI_UNIT ( .MILLI., .METRE. ) );
#333 = ORIENTED_EDGE ( 'NONE', *, *, #55, .F. ) ;
#334 = EDGE_CURVE ( 'NONE', #616, #264, #495, .T. ) ;
#335 = EDGE_CURVE ( 'NONE', #44, #320, #177, .T. ) ;
#336 = CARTESIAN_POINT ( 'NONE',  ( 1.469576158976869898E-15, -13.48735469643318119, 8.000000000000000000 ) ) ;
#337 = ORIENTED_EDGE ( 'NONE', *, *, #583, .F. ) ;
#338 = ORIENTED_EDGE ( 'NONE', *, *, #412, .F. ) ;
#339 = CARTESIAN_POINT ( 'NONE',  ( 0.000000000000000000, -1.487354696433179857, 0.000000000000000000 ) ) ;
#340 = ORIENTED_EDGE ( 'NONE', *, *, #56, .F. ) ;
#341 = LINE ( 'NONE', #585, #42 ) ;
#342 = EDGE_LOOP ( 'NONE', ( #317, #615 ) ) ;
#343 = EDGE_CURVE ( 'NONE', #53, #320, #109, .T. ) ;
#344 = AXIS2_PLACEMENT_3D ( 'NONE', #301, #502, #399 ) ;
#345 = DIRECTION ( 'NONE',  ( 0.000000000000000000, 0.000000000000000000, 1.000000000000000000 ) ) ;
#346 = FACE_OUTER_BOUND ( 'NONE', #329, .T. ) ;
#347 = CARTESIAN_POINT ( 'NONE',  ( 0.000000000000000000, -1.487354696433179857, 8.000000000000000000 ) ) ;
#348 = AXIS2_PLACEMENT_3D ( 'NONE', #427, #165, #366 ) ;
#349 = CARTESIAN_POINT ( 'NONE',  ( 0.000000000000000000, -1.487354696433179857, 0.000000000000000000 ) ) ;
#350 = AXIS2_PLACEMENT_3D ( 'NONE', #347, #295, #98 ) ;
#351 = EDGE_CURVE ( 'NONE', #417, #314, #204, .T. ) ;
#352 = CARTESIAN_POINT ( 'NONE',  ( 12.54230484541292512, -7.487354696433178525, 8.000000000000000000 ) ) ;
#353 = EDGE_CURVE ( 'NONE', #620, #418, #71, .T. ) ;
#354 = EDGE_LOOP ( 'NONE', ( #561, #182 ) ) ;
#355 = ADVANCED_FACE ( 'NONE', ( #346 ), #600, .F. ) ;
#356 = CARTESIAN_POINT ( 'NONE',  ( -2.149999999999433697, -13.48735469643318119, 8.000000000000000000 ) ) ;
#357 = FACE_OUTER_BOUND ( 'NONE', #163, .T. ) ;
#358 = CIRCLE ( 'NONE', #245, 2.150000000000000355 ) ;
#359 = CARTESIAN_POINT ( 'NONE',  ( 19.00000000000000000, -1.487354696433177415, 8.000000000000000000 ) ) ;
#360 = EDGE_LOOP ( 'NONE', ( #637, #426 ) ) ;
#361 = CIRCLE ( 'NONE', #174, 2.149999999999539391 ) ;
#362 = DIRECTION ( 'NONE',  ( -1.000000000000000000, 0.000000000000000000, 0.000000000000000000 ) ) ;
#363 = CARTESIAN_POINT ( 'NONE',  ( 10.39230484541326760, -7.487354696433178525, 8.000000000000000000 ) ) ;
#364 = CIRCLE ( 'NONE', #114, 2.150000000000000799 ) ;
#365 = EDGE_LOOP ( 'NONE', ( #78, #460, #519, #574 ) ) ;
#366 = DIRECTION ( 'NONE',  ( 1.000000000000000000, 0.000000000000000000, 0.000000000000000000 ) ) ;
#367 = EDGE_LOOP ( 'NONE', ( #121, #272 ) ) ;
#368 = ORIENTED_EDGE ( 'NONE', *, *, #353, .F. ) ;
#369 = DIRECTION ( 'NONE',  ( 1.000000000000000000, 0.000000000000000000, 0.000000000000000000 ) ) ;
#370 = ORIENTED_EDGE ( 'NONE', *, *, #9, .F. ) ;
#371 = VERTEX_POINT ( 'NONE', #500 ) ;
#372 = ORIENTED_EDGE ( 'NONE', *, *, #531, .T. ) ;
#373 = CARTESIAN_POINT ( 'NONE',  ( 1.469576158976869898E-15, -13.48735469643318119, 0.000000000000000000 ) ) ;
#374 = DIRECTION ( 'NONE',  ( -0.000000000000000000, -0.000000000000000000, -1.000000000000000000 ) ) ;
#375 = EDGE_LOOP ( 'NONE', ( #508, #273 ) ) ;
#376 = CIRCLE ( 'NONE', #256, 19.00000000000000000 ) ;
#377 = FACE_OUTER_BOUND ( 'NONE', #288, .T. ) ;
#378 = ORIENTED_EDGE ( 'NONE', *, *, #627, .F. ) ;
#379 = ORIENTED_EDGE ( 'NONE', *, *, #424, .F. ) ;
#380 = CYLINDRICAL_SURFACE ( 'NONE', #307, 7.000000000000000000 ) ;
#381 = AXIS2_PLACEMENT_3D ( 'NONE', #252, #551, #249 ) ;
#382 = CARTESIAN_POINT ( 'NONE',  ( 0.000000000000000000, -1.487354696433179857, 8.000000000000000000 ) ) ;
#383 = ADVANCED_FACE ( 'NONE', ( #112 ), #507, .F. ) ;
#384 = CIRCLE ( 'NONE', #103, 2.150000000000000355 ) ;
#385 = FACE_OUTER_BOUND ( 'NONE', #509, .T. ) ;
#386 = CYLINDRICAL_SURFACE ( 'NONE', #331, 2.150000000000000355 ) ;
#387 = VERTEX_POINT ( 'NONE', #4 ) ;
#388 = APPLICATION_PROTOCOL_DEFINITION ( 'draft international standard', 'automotive_design', 1998, #631 ) ;
#389 = MECHANICAL_DESIGN_GEOMETRIC_PRESENTATION_REPRESENTATION (  '', ( #641 ), #452 ) ;
#390 = CARTESIAN_POINT ( 'NONE',  ( -10.39230484541326405, -7.487354696433185630, 8.000000000000000000 ) ) ;
#391 = DIRECTION ( 'NONE',  ( 1.000000000000000000, 0.000000000000000000, 0.000000000000000000 ) ) ;
#392 = AXIS2_PLACEMENT_3D ( 'NONE', #231, #374, #428 ) ;
#393 = EDGE_CURVE ( 'NONE', #387, #429, #161, .T. ) ;
#394 = DIRECTION ( 'NONE',  ( 0.000000000000000000, 0.000000000000000000, 1.000000000000000000 ) ) ;
#395 = CARTESIAN_POINT ( 'NONE',  ( -8.242304845413029213, 4.512645303566650057, 0.000000000000000000 ) ) ;
#396 = DIRECTION ( 'NONE',  ( -0.000000000000000000, -0.000000000000000000, -1.000000000000000000 ) ) ;
#397 = EDGE_CURVE ( 'NONE', #120, #88, #569, .T. ) ;
#398 = DIRECTION ( 'NONE',  ( 0.000000000000000000, 0.000000000000000000, 1.000000000000000000 ) ) ;
#399 = DIRECTION ( 'NONE',  ( -1.000000000000000000, 0.000000000000000000, 0.000000000000000000 ) ) ;
#400 = ORIENTED_EDGE ( 'NONE', *, *, #421, .F. ) ;
#401 = AXIS2_PLACEMENT_3D ( 'NONE', #200, #148, #262 ) ;
#402 = CARTESIAN_POINT ( 'NONE',  ( 0.000000000000000000, -1.487354696433179857, 0.000000000000000000 ) ) ;
#403 = DIRECTION ( 'NONE',  ( 1.000000000000000000, 0.000000000000000000, -0.000000000000000000 ) ) ;
#404 = CARTESIAN_POINT ( 'NONE',  ( 10.39230484541326760, -7.487354696433178525, 8.000000000000000000 ) ) ;
#405 = CARTESIAN_POINT ( 'NONE',  ( 10.39230484541344879, 4.512645303567090593, 8.000000000000000000 ) ) ;
#406 = EDGE_LOOP ( 'NONE', ( #550, #21, #228, #178 ) ) ;
#407 = CARTESIAN_POINT ( 'NONE',  ( -10.39230484541326405, -7.487354696433185630, 8.000000000000000000 ) ) ;
#408 = CIRCLE ( 'NONE', #18, 2.149999999999657518 ) ;
#409 = DIRECTION ( 'NONE',  ( -0.000000000000000000, -0.000000000000000000, -1.000000000000000000 ) ) ;
#410 = CYLINDRICAL_SURFACE ( 'NONE', #526, 2.149999999999657518 ) ;
#411 = CARTESIAN_POINT ( 'NONE',  ( 10.39230484541344879, 4.512645303567090593, 0.000000000000000000 ) ) ;
#412 = EDGE_CURVE ( 'NONE', #430, #259, #603, .T. ) ;
#413 = VECTOR ( 'NONE', #243, 1000.000000000000000 ) ;
#414 = VERTEX_POINT ( 'NONE', #305 ) ;
#415 = ORIENTED_EDGE ( 'NONE', *, *, #563, .T. ) ;
#416 = DIRECTION ( 'NONE',  ( 1.000000000000000000, 0.000000000000000000, 0.000000000000000000 ) ) ;
#417 = VERTEX_POINT ( 'NONE', #158 ) ;
#418 = VERTEX_POINT ( 'NONE', #395 ) ;
#419 = VERTEX_POINT ( 'NONE', #359 ) ;
#420 = CYLINDRICAL_SURFACE ( 'NONE', #634, 2.150000000000000799 ) ;
#421 = EDGE_CURVE ( 'NONE', #614, #371, #604, .T. ) ;
#422 = CARTESIAN_POINT ( 'NONE',  ( -10.39230484541302957, 4.512645303566650057, 0.000000000000000000 ) ) ;
#423 = ORIENTED_EDGE ( 'NONE', *, *, #610, .T. ) ;
#424 = EDGE_CURVE ( 'NONE', #33, #573, #79, .T. ) ;
#425 = AXIS2_PLACEMENT_3D ( 'NONE', #373, #325, #613 ) ;
#426 = ORIENTED_EDGE ( 'NONE', *, *, #118, .T. ) ;
#427 = CARTESIAN_POINT ( 'NONE',  ( 1.469576158976869898E-15, -13.48735469643318119, 0.000000000000000000 ) ) ;
#428 = DIRECTION ( 'NONE',  ( -1.000000000000000000, 0.000000000000000000, 0.000000000000000000 ) ) ;
#429 = VERTEX_POINT ( 'NONE', #203 ) ;
#430 = VERTEX_POINT ( 'NONE', #451 ) ;
#431 = FACE_BOUND ( 'NONE', #312, .T. ) ;
#432 = VERTEX_POINT ( 'NONE', #549 ) ;
#433 = CYLINDRICAL_SURFACE ( 'NONE', #579, 2.149999999999435030 ) ;
#434 = DIRECTION ( 'NONE',  ( 0.000000000000000000, 0.000000000000000000, 1.000000000000000000 ) ) ;
#435 = CIRCLE ( 'NONE', #494, 2.149999999999539391 ) ;
#436 = DIRECTION ( 'NONE',  ( -0.000000000000000000, -0.000000000000000000, -1.000000000000000000 ) ) ;
#437 = ORIENTED_EDGE ( 'NONE', *, *, #463, .F. ) ;
#438 = CARTESIAN_POINT ( 'NONE',  ( 0.000000000000000000, 0.000000000000000000, 0.000000000000000000 ) ) ;
#439 = DIRECTION ( 'NONE',  ( -1.000000000000000000, 0.000000000000000000, 0.000000000000000000 ) ) ;
#440 = AXIS2_PLACEMENT_3D ( 'NONE', #363, #586, #84 ) ;
#441 = CIRCLE ( 'NONE', #89, 2.149999999999657518 ) ;
#442 = EDGE_LOOP ( 'NONE', ( #437, #282 ) ) ;
#443 = LINE ( 'NONE', #138, #152 ) ;
#444 = AXIS2_PLACEMENT_3D ( 'NONE', #390, #538, #96 ) ;
#445 = EDGE_CURVE ( 'NONE', #314, #417, #575, .T. ) ;
#446 = DIRECTION ( 'NONE',  ( -1.000000000000000000, 0.000000000000000000, 0.000000000000000000 ) ) ;
#447 = DIRECTION ( 'NONE',  ( -1.000000000000000000, 0.000000000000000000, 0.000000000000000000 ) ) ;
#448 = EDGE_CURVE ( 'NONE', #195, #264, #462, .T. ) ;
#449 = FACE_BOUND ( 'NONE', #342, .T. ) ;
#450 = LINE ( 'NONE', #6, #47 ) ;
#451 = CARTESIAN_POINT ( 'NONE',  ( -12.54230484541280255, -7.487354696433185630, 8.000000000000000000 ) ) ;
#452 =( GEOMETRIC_REPRESENTATION_CONTEXT ( 3 ) GLOBAL_UNCERTAINTY_ASSIGNED_CONTEXT ( ( #540 ) ) GLOBAL_UNIT_ASSIGNED_CONTEXT ( ( #332, #484, #313 ) ) REPRESENTATION_CONTEXT ( 'NONE', 'WORKASPACE' ) );
#453 = CARTESIAN_POINT ( 'NONE',  ( -10.39230484541326405, -7.487354696433185630, 8.000000000000000000 ) ) ;
#454 = FACE_OUTER_BOUND ( 'NONE', #266, .T. ) ;
#455 = AXIS2_PLACEMENT_3D ( 'NONE', #16, #213, #208 ) ;
#456 = CARTESIAN_POINT ( 'NONE',  ( -8.242304845413723768, -7.487354696433185630, 8.000000000000000000 ) ) ;
#457 = ORIENTED_EDGE ( 'NONE', *, *, #334, .F. ) ;
#458 = CARTESIAN_POINT ( 'NONE',  ( 10.39230484541326760, -7.487354696433178525, 8.000000000000000000 ) ) ;
#459 = CARTESIAN_POINT ( 'NONE',  ( 8.242304845413610082, -7.487354696433178525, 8.000000000000000000 ) ) ;
#460 = ORIENTED_EDGE ( 'NONE', *, *, #560, .F. ) ;
#461 = CARTESIAN_POINT ( 'NONE',  ( 2.150000000000000355, 10.51264530356682236, 8.000000000000000000 ) ) ;
#462 = CIRCLE ( 'NONE', #294, 2.149999999999657518 ) ;
#463 = EDGE_CURVE ( 'NONE', #616, #554, #159, .T. ) ;
#464 = DIRECTION ( 'NONE',  ( -0.000000000000000000, -0.000000000000000000, -1.000000000000000000 ) ) ;
#465 = VERTEX_POINT ( 'NONE', #52 ) ;
#466 = VERTEX_POINT ( 'NONE', #57 ) ;
#467 = CARTESIAN_POINT ( 'NONE',  ( -12.54230484541280255, -7.487354696433185630, 0.000000000000000000 ) ) ;
#468 = CIRCLE ( 'NONE', #127, 19.00000000000000000 ) ;
#469 = ORIENTED_EDGE ( 'NONE', *, *, #635, .T. ) ;
#470 = ADVANCED_FACE ( 'NONE', ( #357 ), #19, .F. ) ;
#471 = DIRECTION ( 'NONE',  ( 1.000000000000000000, 0.000000000000000000, 0.000000000000000000 ) ) ;
#472 = CARTESIAN_POINT ( 'NONE',  ( 0.000000000000000000, -1.487354696433179857, 8.000000000000000000 ) ) ;
#473 = EDGE_CURVE ( 'NONE', #554, #616, #408, .T. ) ;
#474 = EDGE_CURVE ( 'NONE', #320, #44, #133, .T. ) ;
#475 = ORIENTED_EDGE ( 'NONE', *, *, #412, .T. ) ;
#476 = DIRECTION ( 'NONE',  ( -0.000000000000000000, -0.000000000000000000, -1.000000000000000000 ) ) ;
#477 = CYLINDRICAL_SURFACE ( 'NONE', #392, 2.150000000000000799 ) ;
#478 = EDGE_LOOP ( 'NONE', ( #235, #224, #145, #323 ) ) ;
#479 = ORIENTED_EDGE ( 'NONE', *, *, #343, .F. ) ;
#480 = DIRECTION ( 'NONE',  ( -0.000000000000000000, -0.000000000000000000, -1.000000000000000000 ) ) ;
#481 = ORIENTED_EDGE ( 'NONE', *, *, #265, .T. ) ;
#482 = SURFACE_STYLE_FILL_AREA ( #283 ) ;
#483 = ADVANCED_FACE ( 'NONE', ( #261, #308, #545, #61, #257, #449, #5, #206 ), #104, .F. ) ;
#484 =( NAMED_UNIT ( * ) PLANE_ANGLE_UNIT ( ) SI_UNIT ( $, .RADIAN. ) );
#485 = CARTESIAN_POINT ( 'NONE',  ( -10.39230484541326405, -7.487354696433185630, 8.000000000000000000 ) ) ;
#486 = CARTESIAN_POINT ( 'NONE',  ( -19.00000000000000000, -1.487354696433179857, 8.000000000000000000 ) ) ;
#487 = DIRECTION ( 'NONE',  ( 1.000000000000000000, 0.000000000000000000, 0.000000000000000000 ) ) ;
#488 = CARTESIAN_POINT ( 'NONE',  ( 8.242304845413448433, 4.512645303567090593, 8.000000000000000000 ) ) ;
#489 = CARTESIAN_POINT ( 'NONE',  ( 8.242304845413610082, -7.487354696433178525, 8.000000000000000000 ) ) ;
#490 = ORIENTED_EDGE ( 'NONE', *, *, #281, .F. ) ;
#491 = VECTOR ( 'NONE', #464, 1000.000000000000000 ) ;
#492 =( NAMED_UNIT ( * ) PLANE_ANGLE_UNIT ( ) SI_UNIT ( $, .RADIAN. ) );
#493 = VECTOR ( 'NONE', #576, 1000.000000000000000 ) ;
#494 = AXIS2_PLACEMENT_3D ( 'NONE', #43, #286, #487 ) ;
#495 = LINE ( 'NONE', #459, #41 ) ;
#496 = DIRECTION ( 'NONE',  ( 0.000000000000000000, 0.000000000000000000, 1.000000000000000000 ) ) ;
#497 = DIRECTION ( 'NONE',  ( -0.000000000000000000, -0.000000000000000000, -1.000000000000000000 ) ) ;
#498 = DIRECTION ( 'NONE',  ( -0.000000000000000000, -0.000000000000000000, -1.000000000000000000 ) ) ;
#499 = DIRECTION ( 'NONE',  ( -0.000000000000000000, -0.000000000000000000, -1.000000000000000000 ) ) ;
#500 = CARTESIAN_POINT ( 'NONE',  ( -12.54230484541302992, 4.512645303566650057, 8.000000000000000000 ) ) ;
#501 = PRESENTATION_LAYER_ASSIGNMENT (  '', '', ( #641 ) ) ;
#502 = DIRECTION ( 'NONE',  ( -0.000000000000000000, -0.000000000000000000, -1.000000000000000000 ) ) ;
#503 = CARTESIAN_POINT ( 'NONE',  ( 10.39230484541326760, -7.487354696433178525, 0.000000000000000000 ) ) ;
#504 = ORIENTED_EDGE ( 'NONE', *, *, #265, .F. ) ;
#505 = ADVANCED_FACE ( 'NONE', ( #201 ), #111, .T. ) ;
#506 = DIRECTION ( 'NONE',  ( -0.000000000000000000, -0.000000000000000000, -1.000000000000000000 ) ) ;
#507 = CYLINDRICAL_SURFACE ( 'NONE', #93, 2.150000000000000799 ) ;
#508 = ORIENTED_EDGE ( 'NONE', *, *, #627, .T. ) ;
#509 = EDGE_LOOP ( 'NONE', ( #26, #423, #490, #170 ) ) ;
#510 = CYLINDRICAL_SURFACE ( 'NONE', #278, 2.149999999999435030 ) ;
#511 = ORIENTED_EDGE ( 'NONE', *, *, #582, .T. ) ;
#512 = ADVANCED_FACE ( 'NONE', ( #303 ), #410, .F. ) ;
#513 = ORIENTED_EDGE ( 'NONE', *, *, #105, .F. ) ;
#514 = CARTESIAN_POINT ( 'NONE',  ( -10.39230484541326405, -7.487354696433185630, 0.000000000000000000 ) ) ;
#515 = EDGE_CURVE ( 'NONE', #137, #414, #358, .T. ) ;
#516 = CIRCLE ( 'NONE', #348, 2.149999999999435030 ) ;
#517 = CIRCLE ( 'NONE', #599, 2.149999999999539391 ) ;
#518 = EDGE_LOOP ( 'NONE', ( #110, #565 ) ) ;
#519 = ORIENTED_EDGE ( 'NONE', *, *, #9, .T. ) ;
#520 = ORIENTED_EDGE ( 'NONE', *, *, #353, .T. ) ;
#521 = CARTESIAN_POINT ( 'NONE',  ( 10.39230484541326760, -7.487354696433178525, 0.000000000000000000 ) ) ;
#522 = DIRECTION ( 'NONE',  ( -0.000000000000000000, -0.000000000000000000, -1.000000000000000000 ) ) ;
#523 = ORIENTED_EDGE ( 'NONE', *, *, #515, .T. ) ;
#524 = ORIENTED_EDGE ( 'NONE', *, *, #474, .F. ) ;
#525 = CARTESIAN_POINT ( 'NONE',  ( 10.39230484541344879, 4.512645303567090593, 8.000000000000000000 ) ) ;
#526 = AXIS2_PLACEMENT_3D ( 'NONE', #458, #498, #15 ) ;
#527 = DIRECTION ( 'NONE',  ( 1.000000000000000000, 0.000000000000000000, 0.000000000000000000 ) ) ;
#528 = DIRECTION ( 'NONE',  ( 0.000000000000000000, 0.000000000000000000, 1.000000000000000000 ) ) ;
#529 = EDGE_CURVE ( 'NONE', #387, #430, #300, .T. ) ;
#530 = CYLINDRICAL_SURFACE ( 'NONE', #444, 2.149999999999539391 ) ;
#531 = EDGE_CURVE ( 'NONE', #29, #432, #115, .T. ) ;
#532 = COLOUR_RGB ( '',0.7921568627450980005, 0.8196078431372548767, 0.9333333333333333481 ) ;
#533 = DIRECTION ( 'NONE',  ( 1.000000000000000000, 0.000000000000000000, 0.000000000000000000 ) ) ;
#534 = EDGE_CURVE ( 'NONE', #414, #88, #597, .T. ) ;
#535 = ORIENTED_EDGE ( 'NONE', *, *, #102, .T. ) ;
#536 = AXIS2_PLACEMENT_3D ( 'NONE', #411, #179, #76 ) ;
#537 =( LENGTH_UNIT ( ) NAMED_UNIT ( * ) SI_UNIT ( .MILLI., .METRE. ) );
#538 = DIRECTION ( 'NONE',  ( -0.000000000000000000, -0.000000000000000000, -1.000000000000000000 ) ) ;
#539 =( GEOMETRIC_REPRESENTATION_CONTEXT ( 3 ) GLOBAL_UNCERTAINTY_ASSIGNED_CONTEXT ( ( #143 ) ) GLOBAL_UNIT_ASSIGNED_CONTEXT ( ( #537, #492, #642 ) ) REPRESENTATION_CONTEXT ( 'NONE', 'WORKASPACE' ) );
#540 = UNCERTAINTY_MEASURE_WITH_UNIT (LENGTH_MEASURE( 1.000000000000000082E-05 ), #332, 'distance_accuracy_value', 'NONE');
#541 = CARTESIAN_POINT ( 'NONE',  ( 0.000000000000000000, -1.487354696433179857, 8.000000000000000000 ) ) ;
#542 = AXIS2_PLACEMENT_3D ( 'NONE', #8, #155, #60 ) ;
#543 = CARTESIAN_POINT ( 'NONE',  ( -19.00000000000000000, -1.487354696433179857, 0.000000000000000000 ) ) ;
#544 = DIRECTION ( 'NONE',  ( 0.000000000000000000, 0.000000000000000000, 1.000000000000000000 ) ) ;
#545 = FACE_BOUND ( 'NONE', #130, .T. ) ;
#546 = DIRECTION ( 'NONE',  ( 1.000000000000000000, 0.000000000000000000, 0.000000000000000000 ) ) ;
#547 = CARTESIAN_POINT ( 'NONE',  ( 0.000000000000000000, -1.487354696433179857, 8.000000000000000000 ) ) ;
#548 = CARTESIAN_POINT ( 'NONE',  ( 7.000000000000000000, -1.487354696433178969, 8.000000000000000000 ) ) ;
#549 = CARTESIAN_POINT ( 'NONE',  ( 8.242304845413448433, 4.512645303567090593, 0.000000000000000000 ) ) ;
#550 = ORIENTED_EDGE ( 'NONE', *, *, #632, .F. ) ;
#551 = DIRECTION ( 'NONE',  ( 0.000000000000000000, 0.000000000000000000, 1.000000000000000000 ) ) ;
#552 = DIRECTION ( 'NONE',  ( 0.000000000000000000, 0.000000000000000000, 1.000000000000000000 ) ) ;
#553 = CIRCLE ( 'NONE', #82, 2.150000000000000799 ) ;
#554 = VERTEX_POINT ( 'NONE', #352 ) ;
#555 = DIRECTION ( 'NONE',  ( 1.000000000000000000, 0.000000000000000000, 0.000000000000000000 ) ) ;
#556 = CIRCLE ( 'NONE', #608, 19.00000000000000000 ) ;
#557 = DIRECTION ( 'NONE',  ( 1.000000000000000000, 0.000000000000000000, 0.000000000000000000 ) ) ;
#558 = ORIENTED_EDGE ( 'NONE', *, *, #593, .F. ) ;
#559 = FACE_OUTER_BOUND ( 'NONE', #587, .T. ) ;
#560 = EDGE_CURVE ( 'NONE', #83, #419, #468, .T. ) ;
#561 = ORIENTED_EDGE ( 'NONE', *, *, #241, .T. ) ;
#562 = EDGE_LOOP ( 'NONE', ( #172, #379 ) ) ;
#563 = EDGE_CURVE ( 'NONE', #88, #120, #25, .T. ) ;
#564 = DIRECTION ( 'NONE',  ( 0.000000000000000000, 0.000000000000000000, 1.000000000000000000 ) ) ;
#565 = ORIENTED_EDGE ( 'NONE', *, *, #529, .F. ) ;
#566 = ORIENTED_EDGE ( 'NONE', *, *, #393, .T. ) ;
#567 = ORIENTED_EDGE ( 'NONE', *, *, #421, .T. ) ;
#568 = DIRECTION ( 'NONE',  ( -1.000000000000000000, 0.000000000000000000, 0.000000000000000000 ) ) ;
#569 = CIRCLE ( 'NONE', #184, 2.150000000000000355 ) ;
#570 = CARTESIAN_POINT ( 'NONE',  ( 10.39230484541344879, 4.512645303567090593, 0.000000000000000000 ) ) ;
#571 = EDGE_LOOP ( 'NONE', ( #193, #481 ) ) ;
#572 = DIRECTION ( 'NONE',  ( -1.000000000000000000, 0.000000000000000000, 0.000000000000000000 ) ) ;
#573 = VERTEX_POINT ( 'NONE', #543 ) ;
#574 = ORIENTED_EDGE ( 'NONE', *, *, #38, .T. ) ;
#575 = CIRCLE ( 'NONE', #542, 2.149999999999435030 ) ;
#576 = DIRECTION ( 'NONE',  ( -0.000000000000000000, -0.000000000000000000, -1.000000000000000000 ) ) ;
#577 = ADVANCED_FACE ( 'NONE', ( #589 ), #90, .T. ) ;
#578 = FILL_AREA_STYLE_COLOUR ( '', #532 ) ;
#579 = AXIS2_PLACEMENT_3D ( 'NONE', #336, #175, #136 ) ;
#580 = AXIS2_PLACEMENT_3D ( 'NONE', #541, #289, #149 ) ;
#581 = DIRECTION ( 'NONE',  ( 0.000000000000000000, 0.000000000000000000, 1.000000000000000000 ) ) ;
#582 = EDGE_CURVE ( 'NONE', #414, #137, #384, .T. ) ;
#583 = EDGE_CURVE ( 'NONE', #417, #466, #341, .T. ) ;
#584 = ADVANCED_FACE ( 'NONE', ( #199 ), #3, .F. ) ;
#585 = CARTESIAN_POINT ( 'NONE',  ( 2.149999999999436362, -13.48735469643318119, 8.000000000000000000 ) ) ;
#586 = DIRECTION ( 'NONE',  ( 0.000000000000000000, 0.000000000000000000, 1.000000000000000000 ) ) ;
#587 = EDGE_LOOP ( 'NONE', ( #598, #511, #176, #66 ) ) ;
#588 = CYLINDRICAL_SURFACE ( 'NONE', #164, 2.149999999999657518 ) ;
#589 = FACE_OUTER_BOUND ( 'NONE', #233, .T. ) ;
#590 = ORIENTED_EDGE ( 'NONE', *, *, #102, .F. ) ;
#591 = APPLICATION_PROTOCOL_DEFINITION ( 'draft international standard', 'automotive_design', 1998, #49 ) ;
#592 = CARTESIAN_POINT ( 'NONE',  ( -10.39230484541302957, 4.512645303566650057, 8.000000000000000000 ) ) ;
#593 = EDGE_CURVE ( 'NONE', #17, #53, #242, .T. ) ;
#594 = CARTESIAN_POINT ( 'NONE',  ( 12.54230484541344914, 4.512645303567090593, 8.000000000000000000 ) ) ;
#595 = CARTESIAN_POINT ( 'NONE',  ( 0.000000000000000000, 10.51264530356682236, 0.000000000000000000 ) ) ;
#596 = VECTOR ( 'NONE', #409, 1000.000000000000000 ) ;
#597 = LINE ( 'NONE', #461, #220 ) ;
#598 = ORIENTED_EDGE ( 'NONE', *, *, #534, .F. ) ;
#599 = AXIS2_PLACEMENT_3D ( 'NONE', #485, #188, #297 ) ;
#600 = CYLINDRICAL_SURFACE ( 'NONE', #455, 2.150000000000000799 ) ;
#601 = PRODUCT ( '\X2\8f6e6bc257ab7247\X0\', '\X2\8f6e6bc257ab7247\X0\', '', ( #146 ) ) ;
#602 = CARTESIAN_POINT ( 'NONE',  ( 0.000000000000000000, -1.487354696433179857, 0.000000000000000000 ) ) ;
#603 = LINE ( 'NONE', #150, #491 ) ;
#604 = CIRCLE ( 'NONE', #214, 2.150000000000000799 ) ;
#605 = DIRECTION ( 'NONE',  ( 0.000000000000000000, 0.000000000000000000, 1.000000000000000000 ) ) ;
#606 = CARTESIAN_POINT ( 'NONE',  ( -10.39230484541302957, 4.512645303566650057, 8.000000000000000000 ) ) ;
#607 = EDGE_LOOP ( 'NONE', ( #92, #14 ) ) ;
#608 = AXIS2_PLACEMENT_3D ( 'NONE', #339, #40, #108 ) ;
#609 = LINE ( 'NONE', #267, #31 ) ;
#610 = EDGE_CURVE ( 'NONE', #12, #22, #45, .T. ) ;
#611 = ORIENTED_EDGE ( 'NONE', *, *, #236, .F. ) ;
#612 = ORIENTED_EDGE ( 'NONE', *, *, #463, .T. ) ;
#613 = DIRECTION ( 'NONE',  ( 1.000000000000000000, 0.000000000000000000, 0.000000000000000000 ) ) ;
#614 = VERTEX_POINT ( 'NONE', #39 ) ;
#615 = ORIENTED_EDGE ( 'NONE', *, *, #190, .T. ) ;
#616 = VERTEX_POINT ( 'NONE', #489 ) ;
#617 = CARTESIAN_POINT ( 'NONE',  ( 0.000000000000000000, 10.51264530356682236, 8.000000000000000000 ) ) ;
#618 = LINE ( 'NONE', #624, #34 ) ;
#619 = AXIS2_PLACEMENT_3D ( 'NONE', #382, #528, #630 ) ;
#620 = VERTEX_POINT ( 'NONE', #141 ) ;
#621 = ORIENTED_EDGE ( 'NONE', *, *, #351, .F. ) ;
#622 = CYLINDRICAL_SURFACE ( 'NONE', #230, 2.150000000000000355 ) ;
#623 = CIRCLE ( 'NONE', #536, 2.150000000000000799 ) ;
#624 = CARTESIAN_POINT ( 'NONE',  ( 7.000000000000000000, -1.487354696433178969, 8.000000000000000000 ) ) ;
#625 = EDGE_LOOP ( 'NONE', ( #520, #292 ) ) ;
#626 = EDGE_LOOP ( 'NONE', ( #337, #166, #70, #36 ) ) ;
#627 = EDGE_CURVE ( 'NONE', #259, #429, #435, .T. ) ;
#628 = FACE_OUTER_BOUND ( 'NONE', #571, .T. ) ;
#629 = EDGE_LOOP ( 'NONE', ( #612, #227, #32, #457 ) ) ;
#630 = DIRECTION ( 'NONE',  ( 1.000000000000000000, 0.000000000000000000, -0.000000000000000000 ) ) ;
#631 = APPLICATION_CONTEXT ( 'automotive_design' ) ;
#632 = EDGE_CURVE ( 'NONE', #554, #195, #443, .T. ) ;
#633 = CARTESIAN_POINT ( 'NONE',  ( -2.150000000000000355, 10.51264530356682236, 0.000000000000000000 ) ) ;
#634 = AXIS2_PLACEMENT_3D ( 'NONE', #173, #274, #229 ) ;
#635 = EDGE_CURVE ( 'NONE', #430, #387, #517, .T. ) ;
#636 = ORIENTED_EDGE ( 'NONE', *, *, #534, .T. ) ;
#637 = ORIENTED_EDGE ( 'NONE', *, *, #281, .T. ) ;
#638 = DIRECTION ( 'NONE',  ( -0.000000000000000000, -0.000000000000000000, -1.000000000000000000 ) ) ;
#639 = DIRECTION ( 'NONE',  ( -1.000000000000000000, 0.000000000000000000, 0.000000000000000000 ) ) ;
#640 = ORIENTED_EDGE ( 'NONE', *, *, #236, .T. ) ;
#641 = STYLED_ITEM ( 'NONE', ( #271 ), #156 ) ;
#642 =( NAMED_UNIT ( * ) SI_UNIT ( $, .STERADIAN. ) SOLID_ANGLE_UNIT ( ) );
#643 = CIRCLE ( 'NONE', #135, 7.000000000000000000 ) ;
ENDSEC;
END-ISO-10303-21;
